<svg xmlns="http://www.w3.org/2000/svg" viewBox="0 0 1024 1024" role="img" aria-labelledby="title desc">
  <title id="title">SlimeMold Folded Trace</title>
  <desc id="desc">A soft asymmetric organism folds a weaker probe back into a longer, calmer growth trace.</desc>
  <path fill="#a96d4d" d="M193 675C224 626 285 596 355 584C434 570 471 535 497 486C527 426 525 357 572 304C612 258 679 266 705 313C730 358 706 407 670 439C637 468 615 498 634 529C655 563 707 563 760 582C814 601 850 643 844 695C837 757 783 788 729 773C680 760 648 717 606 695C564 673 528 689 497 728C461 774 418 802 367 789C312 776 280 726 305 681C322 651 349 633 337 616C320 592 265 610 222 660C206 678 196 684 193 675Z"/>
  <path fill="#a96d4d" d="M363 565C329 525 319 477 334 435C348 396 382 368 418 373C451 378 468 409 458 438C448 466 419 482 409 511C401 535 414 553 430 572C408 579 385 577 363 565Z" opacity=".42"/>
</svg>
